<svg width="150" height="50" viewBox="0 0 150 50" fill="none" xmlns="http://www.w3.org/2000/svg">
<rect width="150" height="50" fill="#DB0000"/>
<path d="M24.905 16.5951V35H21.6003L13.5164 23.3063H13.3638V35H9.55069V16.5951H12.9063L20.9393 28.2888H21.1173V16.5951H24.905ZM44.8605 25.7976C44.8605 31.7969 41.1237 35.2542 36.2682 35.2542C31.362 35.2542 27.6505 31.7715 27.6505 25.7976C27.6505 19.7982 31.362 16.3409 36.2682 16.3409C41.1237 16.3409 44.8605 19.7982 44.8605 25.7976ZM40.9711 25.7976C40.9711 21.8573 39.1154 19.7219 36.2682 19.7219C33.4211 19.7219 31.5399 21.8573 31.5399 25.7976C31.5399 29.7378 33.4211 31.8732 36.2682 31.8732C39.1154 31.8732 40.9711 29.7378 40.9711 25.7976ZM63.5959 21.8573C63.4433 20.4083 62.274 19.544 60.4182 19.544C58.4862 19.544 57.4186 20.4337 57.3931 21.6539C57.3677 22.9758 58.7659 23.5859 60.342 23.9418L61.9943 24.3486C65.1466 25.0604 67.5107 26.6619 67.5107 29.7378C67.5107 33.1188 64.8669 35.2542 60.3928 35.2542C55.9441 35.2542 53.097 33.1951 52.9953 29.2548H56.7068C56.8339 31.1106 58.3083 32.0512 60.342 32.0512C62.3502 32.0512 63.6467 31.1106 63.6467 29.7378C63.6467 28.4922 62.5028 27.9075 60.4945 27.3991L58.4862 26.9161C55.3849 26.1535 53.4783 24.6028 53.4783 21.9081C53.4783 18.5526 56.4271 16.3409 60.4437 16.3409C64.511 16.3409 67.2057 18.6034 67.2565 21.8573H63.5959ZM81.3906 16.5951H85.2292V28.543C85.2292 32.585 82.1787 35.2542 77.6029 35.2542C73.0271 35.2542 70.002 32.585 70.002 28.543V16.5951H73.8151V28.238C73.8151 30.3479 75.315 31.8986 77.6029 31.8986C79.9162 31.8986 81.3906 30.3479 81.3906 28.238V16.5951ZM100.558 22.5183C100.05 20.7896 98.6515 19.7219 96.6433 19.7219C93.7961 19.7219 91.8641 21.9081 91.8641 25.7722C91.8641 29.6616 93.7453 31.8732 96.6687 31.8732C99.2998 31.8732 100.863 30.3861 100.914 28.06H96.9229V25.1875H104.6V27.4754C104.6 32.3054 101.295 35.2542 96.6433 35.2542C91.4828 35.2542 87.9747 31.6444 87.9747 25.823C87.9747 19.849 91.7116 16.3409 96.567 16.3409C100.711 16.3409 103.914 18.883 104.422 22.5183H100.558ZM109.888 35H105.769L112.15 16.5951H117.056L123.412 35H119.319L117.946 30.7547H111.286L109.888 35ZM112.252 27.7804H116.98L114.667 20.7388H114.54L112.252 27.7804ZM125.496 35V16.5951H132.716C136.91 16.5951 139.3 18.9593 139.3 22.5945C139.3 25.1112 138.143 26.9415 136.046 27.8313L139.961 35H135.741L132.233 28.4668H129.309V35H125.496ZM129.309 25.3654H132.004C134.266 25.3654 135.36 24.4248 135.36 22.5945C135.36 20.7388 134.266 19.7219 132.004 19.7219H129.309V25.3654Z" fill="white"/>
</svg>
